M48
;Layer_Color=9474304
;FILE_FORMAT=2:5
INCH,LZ
;TYPE=PLATED
T1F00S00C0.00984
T2F00S00C0.03150
T3F00S00C0.03543
%
T01
X0002833Y0044166
X00035Y0053
X00225Y00425
X00265Y00415
X0031Y00195
X00525Y0020468
X0051588Y00255
X0059Y0022
X0066Y0019
X0074Y0021432
X0061595Y0030115
X0061468Y0037699
X00665Y0041
X0059Y0053
X0081485Y0049969
X0100015Y0050514
X010142Y0047854
X010377Y0044263
X010703Y0041474
X0105457Y0035657
X0106501Y0031495
X01115Y0038
X0117Y0041
X01015Y00385
X00975Y00425
X0102113Y0053887
X0134978Y0048
X0137783Y0043935
X014Y0046
X0144619Y0041881
X0150619Y0047881
X0176Y0048
X01945
X01965Y0045
X01475Y0021
X01245Y003
X01055Y0002
X0102646Y0069714
X0110597Y007004
X01135Y00695
X0126392Y0056621
X0130263Y0054937
X0134123Y0055946
X0084Y00555
X00805Y00595
X0067Y0055
X0166Y0084
X0032Y00685
X0026Y00655
X0023Y0069
T02
X00115Y001
X0021343
X0031185
X00415
X00515
X0012Y00275
Y00375
Y00475
X00615Y001
X00715
X00815
X00915
X01015
X01115
X01215
X01315
X01415
X01515
X01615
X01715
X01815
X01915
X02015
X02005Y008
X01905
X01805
X01705
X01605
X01505
X01405
X01305
X01205
X01105
X01005
X00905
X00805
X00705
X00605
X00505
X00405
X0030185
X0020343
X00105
X0012Y00575
T03
X01555Y00225
X01655
Y00325
X01555
X01755
Y00225
M30
