G04*
G04 #@! TF.GenerationSoftware,Altium Limited,Altium Designer,22.10.1 (41)*
G04*
G04 Layer_Physical_Order=2*
G04 Layer_Color=16711680*
%FSLAX25Y25*%
%MOIN*%
G70*
G04*
G04 #@! TF.SameCoordinates,E3A0FBDB-8A8B-4B96-B359-3B6F4FC795B9*
G04*
G04*
G04 #@! TF.FilePolarity,Positive*
G04*
G01*
G75*
%ADD11C,0.01000*%
%ADD47C,0.00800*%
%ADD48R,0.04000X0.07200*%
%ADD49O,0.04000X0.07200*%
%ADD50O,0.05906X0.07874*%
%ADD51O,0.09843X0.04724*%
%ADD52R,0.09843X0.04724*%
%ADD53C,0.01575*%
%ADD54R,0.05906X0.05118*%
%ADD55R,0.05000X0.05000*%
%ADD56R,0.04803X0.02441*%
%ADD57R,0.05118X0.05906*%
%ADD58R,0.05000X0.05000*%
G36*
X130600Y73131D02*
X130071Y72602D01*
X129817Y72222D01*
X129728Y71774D01*
Y64311D01*
X123752D01*
Y57815D01*
X127157D01*
Y51834D01*
X127246Y51386D01*
X127500Y51006D01*
X129922Y48584D01*
X129972Y48551D01*
X129962Y47956D01*
X129842Y47876D01*
X120871Y38905D01*
X115739D01*
X115475Y39081D01*
X115027Y39171D01*
X112727D01*
X112594Y39329D01*
X112828Y39829D01*
X115999D01*
X116130Y39698D01*
X116695Y39465D01*
X117305D01*
X117870Y39698D01*
X118302Y40130D01*
X118535Y40695D01*
Y41305D01*
X118302Y41870D01*
X117870Y42302D01*
X117305Y42535D01*
X117120D01*
X111670Y47985D01*
Y68942D01*
X111899Y69170D01*
X112133Y69735D01*
Y70017D01*
X112445Y70329D01*
X116252D01*
Y65752D01*
X122748D01*
Y67830D01*
X122883D01*
X123331Y67919D01*
X123711Y68172D01*
X124179Y68641D01*
X124433Y69021D01*
X124522Y69469D01*
Y71427D01*
X126687Y73593D01*
X130408D01*
X130600Y73131D01*
D02*
G37*
G36*
X93330Y66237D02*
X93419Y65790D01*
X93673Y65410D01*
X94199Y64884D01*
X94578Y64630D01*
X95026Y64541D01*
X96991D01*
X97086Y64446D01*
X97086Y64446D01*
X99810Y61721D01*
Y57772D01*
X99900Y57324D01*
X100153Y56944D01*
X102877Y54220D01*
Y52844D01*
X102488Y52455D01*
X102051Y52892D01*
X101976Y52942D01*
X101326Y53593D01*
X100946Y53846D01*
X100498Y53935D01*
X99232D01*
X99050Y53899D01*
X98865Y53876D01*
X98827Y53855D01*
X98784Y53846D01*
X98629Y53743D01*
X98467Y53651D01*
X98441Y53617D01*
X98405Y53593D01*
X98301Y53438D01*
X98186Y53291D01*
X97972Y52864D01*
X89734Y44626D01*
X84710Y39603D01*
X84248Y39794D01*
Y41185D01*
X77752D01*
Y34886D01*
X77649Y34866D01*
X77270Y34612D01*
X76435Y33777D01*
X71249D01*
X66024Y39003D01*
X66121Y39265D01*
X66269Y39465D01*
X66805D01*
X67370Y39698D01*
X67802Y40130D01*
X68035Y40695D01*
Y40880D01*
X75954Y48798D01*
X80484D01*
X80615Y48667D01*
X81179Y48434D01*
X81790D01*
X82354Y48667D01*
X82786Y49099D01*
X83020Y49664D01*
Y50274D01*
X82786Y50839D01*
X82354Y51271D01*
X81790Y51504D01*
X81179D01*
X80615Y51271D01*
X80484Y51139D01*
X75469D01*
X75021Y51050D01*
X74641Y50797D01*
X66380Y42535D01*
X66195D01*
X65630Y42302D01*
X65198Y41870D01*
X64965Y41305D01*
Y40769D01*
X64765Y40621D01*
X64503Y40524D01*
X63579Y41447D01*
X63200Y41700D01*
X62752Y41789D01*
X60409D01*
X60218Y42252D01*
X60796Y42829D01*
X64244D01*
X64692Y42919D01*
X65072Y43172D01*
X77301Y55401D01*
X77754D01*
X78483Y54672D01*
X78863Y54419D01*
X79311Y54330D01*
X82999D01*
X83130Y54198D01*
X83695Y53965D01*
X84305D01*
X84870Y54198D01*
X85302Y54630D01*
X85535Y55195D01*
Y55805D01*
X85302Y56370D01*
X84870Y56802D01*
X84305Y57035D01*
X83695D01*
X83130Y56802D01*
X82999Y56670D01*
X79796D01*
X79066Y57400D01*
X78687Y57653D01*
X78239Y57743D01*
X76816D01*
X76368Y57653D01*
X75989Y57400D01*
X64095Y45506D01*
X64040Y45517D01*
X63948Y45647D01*
X63837Y46068D01*
X63999Y46309D01*
X64088Y46757D01*
Y59933D01*
X69212Y65056D01*
X82799D01*
Y61531D01*
X81570D01*
X81122Y61442D01*
X80743Y61189D01*
X80590Y61035D01*
X80195D01*
X79630Y60802D01*
X79198Y60370D01*
X78965Y59805D01*
Y59195D01*
X79198Y58630D01*
X79630Y58198D01*
X80195Y57965D01*
X80805D01*
X81370Y58198D01*
X81802Y58630D01*
X82018Y59153D01*
X82055Y59190D01*
X84341D01*
X84454Y59213D01*
X90201D01*
Y65124D01*
X90310Y65145D01*
X90690Y65399D01*
X91680Y66389D01*
X91881Y66689D01*
X93330D01*
Y66237D01*
D02*
G37*
G36*
X181252Y64328D02*
X181077Y64293D01*
X181076Y64293D01*
X181076Y64292D01*
X181029Y64261D01*
X178978D01*
X178866Y64239D01*
X175008D01*
Y60302D01*
X181307D01*
Y61430D01*
X181405Y61920D01*
X181629Y61965D01*
X181852Y62009D01*
X181852Y62009D01*
X181853Y62009D01*
X181900Y62041D01*
X186978D01*
Y57073D01*
X176576Y46670D01*
X171790D01*
Y57107D01*
X173768Y59086D01*
X174022Y59465D01*
X174111Y59913D01*
Y64588D01*
X174022Y65035D01*
X173850Y65293D01*
X176317Y67760D01*
X177337D01*
X177450Y67782D01*
X181252D01*
Y64328D01*
D02*
G37*
G36*
X146329Y56863D02*
X136137Y46670D01*
X133168D01*
X132977Y47133D01*
X140680Y54835D01*
X140934Y55215D01*
X141023Y55663D01*
Y66689D01*
X146329D01*
Y56863D01*
D02*
G37*
G36*
X154182Y61024D02*
X154271Y60576D01*
X154524Y60197D01*
X155486Y59235D01*
X155866Y58982D01*
X156313Y58893D01*
X161202D01*
X161477Y58617D01*
Y53635D01*
X159448Y51606D01*
X150435D01*
X149987Y51517D01*
X149608Y51263D01*
X143080Y44735D01*
X139123D01*
X139110Y44744D01*
X139085Y44805D01*
X138687Y45203D01*
X138598Y45346D01*
X138519Y45742D01*
X148328Y55551D01*
X148581Y55931D01*
X148670Y56379D01*
Y66689D01*
X154182D01*
Y61024D01*
D02*
G37*
G36*
X207931Y1068D02*
X107317D01*
X106983Y1569D01*
X107035Y1695D01*
Y2305D01*
X106802Y2870D01*
X106670Y3001D01*
Y14015D01*
X122465Y29809D01*
X122719Y29751D01*
X122992Y29629D01*
X123198Y29130D01*
X123329Y28999D01*
Y26126D01*
X123419Y25678D01*
X123672Y25299D01*
X127299Y21672D01*
Y16713D01*
X134701D01*
Y23327D01*
X128955D01*
X128551Y23731D01*
X128742Y24193D01*
X134701D01*
Y28113D01*
X145500D01*
X145948Y28202D01*
X146328Y28456D01*
X151267Y33395D01*
X151767Y33188D01*
Y31516D01*
X151894Y30550D01*
X152267Y29649D01*
X152861Y28876D01*
X153634Y28283D01*
X154330Y27995D01*
Y27005D01*
X153634Y26717D01*
X152861Y26124D01*
X152267Y25351D01*
X151894Y24450D01*
X151767Y23484D01*
Y21516D01*
X151894Y20550D01*
X152267Y19649D01*
X152861Y18876D01*
X153634Y18283D01*
X154534Y17910D01*
X155500Y17783D01*
X156466Y17910D01*
X157366Y18283D01*
X158139Y18876D01*
X158733Y19649D01*
X159106Y20550D01*
X159233Y21516D01*
Y23484D01*
X159106Y24450D01*
X158733Y25351D01*
X158139Y26124D01*
X157366Y26717D01*
X156670Y27005D01*
Y27995D01*
X157366Y28283D01*
X158139Y28876D01*
X158733Y29649D01*
X159106Y30550D01*
X159233Y31516D01*
Y33484D01*
X159106Y34450D01*
X158733Y35351D01*
X158365Y35829D01*
X158612Y36329D01*
X162388D01*
X162635Y35829D01*
X162267Y35351D01*
X161895Y34450D01*
X161767Y33484D01*
Y31516D01*
X161895Y30550D01*
X162267Y29649D01*
X162861Y28876D01*
X163634Y28283D01*
X164534Y27910D01*
X165500Y27783D01*
X166466Y27910D01*
X167366Y28283D01*
X167884Y28680D01*
X168324Y28475D01*
X168371Y28010D01*
X167162Y26801D01*
X166466Y27090D01*
X165500Y27217D01*
X164534Y27090D01*
X163634Y26717D01*
X162861Y26124D01*
X162267Y25351D01*
X161895Y24450D01*
X161767Y23484D01*
Y21516D01*
X161895Y20550D01*
X162267Y19649D01*
X162861Y18876D01*
X163634Y18283D01*
X164534Y17910D01*
X165500Y17783D01*
X166466Y17910D01*
X167366Y18283D01*
X168139Y18876D01*
X168733Y19649D01*
X169106Y20550D01*
X169233Y21516D01*
Y23484D01*
X169106Y24450D01*
X168817Y25146D01*
X170429Y26757D01*
X170682Y27137D01*
X170771Y27585D01*
Y42644D01*
X170682Y43092D01*
X170429Y43472D01*
X170287Y43613D01*
X170302Y44134D01*
X170393Y44210D01*
X170742Y44398D01*
X171088Y44330D01*
X177061D01*
X177508Y44419D01*
X177888Y44672D01*
X188976Y55760D01*
X189230Y56140D01*
X189319Y56588D01*
Y56645D01*
X189799Y56693D01*
Y56693D01*
X192330D01*
Y49210D01*
X192419Y48762D01*
X192672Y48382D01*
X192965Y48090D01*
Y47695D01*
X193198Y47130D01*
X193630Y46698D01*
X194195Y46465D01*
X194805D01*
X195370Y46698D01*
X195802Y47130D01*
X195930Y47441D01*
X196430Y47341D01*
Y46795D01*
X196153Y46518D01*
X195630Y46302D01*
X195198Y45870D01*
X194965Y45305D01*
Y44695D01*
X195198Y44130D01*
X195630Y43698D01*
X196195Y43465D01*
X196805D01*
X197370Y43698D01*
X197802Y44130D01*
X198035Y44695D01*
Y45090D01*
X198428Y45483D01*
X198682Y45862D01*
X198771Y46310D01*
Y63773D01*
X198682Y64221D01*
X198428Y64601D01*
X197201Y65829D01*
Y70787D01*
X189799D01*
Y68651D01*
X187748D01*
Y70685D01*
X182513D01*
X182400Y70708D01*
X182393D01*
X182207Y70832D01*
X181759Y70921D01*
X181307D01*
Y71719D01*
X177027D01*
X176836Y72181D01*
X176878Y72223D01*
X177132Y72602D01*
X177221Y73050D01*
Y84931D01*
X207931D01*
Y1068D01*
D02*
G37*
G36*
X87262Y84469D02*
X85672Y82880D01*
X85419Y82500D01*
X85330Y82052D01*
Y73307D01*
X82799D01*
Y67397D01*
X68727D01*
X68279Y67308D01*
X67899Y67054D01*
X62090Y61245D01*
X61836Y60865D01*
X61747Y60418D01*
Y47459D01*
X23348D01*
X22900Y47370D01*
X22520Y47116D01*
X15769Y40365D01*
X15371Y40530D01*
X14559Y40637D01*
X11427D01*
X11275Y41137D01*
X11328Y41172D01*
X12828Y42672D01*
X13081Y43052D01*
X13171Y43500D01*
Y44363D01*
X14559D01*
X15371Y44470D01*
X16128Y44783D01*
X16777Y45282D01*
X17276Y45932D01*
X17589Y46688D01*
X17696Y47500D01*
X17589Y48312D01*
X17276Y49068D01*
X16777Y49718D01*
X16128Y50217D01*
X15371Y50530D01*
X14559Y50637D01*
X9441D01*
X8629Y50530D01*
X7872Y50217D01*
X7223Y49718D01*
X6724Y49068D01*
X6411Y48312D01*
X6304Y47500D01*
X6411Y46688D01*
X6724Y45932D01*
X7223Y45282D01*
X7872Y44783D01*
X8629Y44470D01*
X9441Y44363D01*
X10535D01*
X10708Y43863D01*
X10015Y43170D01*
X5485D01*
X4369Y44287D01*
Y44472D01*
X4135Y45036D01*
X3703Y45468D01*
X3139Y45702D01*
X2528D01*
X2484Y45684D01*
X2069Y45962D01*
Y84931D01*
X87071D01*
X87262Y84469D01*
D02*
G37*
G36*
X69937Y31779D02*
X70317Y31525D01*
X70765Y31436D01*
X76920D01*
X77368Y31525D01*
X77747Y31779D01*
X78582Y32614D01*
X93284D01*
X93732Y32703D01*
X94112Y32956D01*
X99465Y38309D01*
X99718Y38251D01*
X99992Y38129D01*
X100198Y37630D01*
X100630Y37198D01*
X101195Y36965D01*
X101805D01*
X102370Y37198D01*
X102578Y37407D01*
X104382D01*
X104498Y37153D01*
X104535Y36906D01*
X104155Y36527D01*
X103922Y35963D01*
Y35352D01*
X104155Y34788D01*
X104587Y34356D01*
X105152Y34122D01*
X105762D01*
X106327Y34356D01*
X106478Y34507D01*
X111488D01*
X111862Y34133D01*
X111862Y34133D01*
X111862Y34133D01*
X112024Y34025D01*
X112242Y33879D01*
X112242Y33879D01*
X112242Y33879D01*
X112492Y33829D01*
X112690Y33790D01*
X112690Y33790D01*
X112690Y33790D01*
X119481D01*
X119673Y33328D01*
X119010Y32666D01*
X107502D01*
X107371Y32797D01*
X106807Y33030D01*
X106196D01*
X105631Y32797D01*
X105200Y32365D01*
X104966Y31800D01*
Y31621D01*
X97524Y24180D01*
X97271Y23800D01*
X97181Y23352D01*
Y11285D01*
X94772Y8875D01*
X94272Y9082D01*
Y11600D01*
X94177Y12317D01*
X93900Y12986D01*
X93460Y13560D01*
X92886Y14000D01*
X92217Y14277D01*
X92202Y14279D01*
X92023Y14807D01*
X92476Y15260D01*
X92730Y15640D01*
X92819Y16088D01*
Y22039D01*
X92730Y22487D01*
X92476Y22867D01*
X91803Y23539D01*
X91424Y23793D01*
X91248Y23828D01*
Y30185D01*
X84752D01*
Y25345D01*
X84078Y24670D01*
X83824Y24291D01*
X83735Y23843D01*
Y23180D01*
X83824Y22732D01*
X84078Y22352D01*
X84547Y21884D01*
X84926Y21630D01*
X85374Y21541D01*
X90478D01*
Y16586D01*
X70069D01*
X67535Y19120D01*
Y19305D01*
X67302Y19870D01*
X66870Y20302D01*
X66305Y20535D01*
X65695D01*
X65130Y20302D01*
X64698Y19870D01*
X64465Y19305D01*
Y19120D01*
X62515Y17170D01*
X59769D01*
X59578Y17632D01*
X65342Y23397D01*
X65596Y23776D01*
X65685Y24225D01*
Y31324D01*
X65596Y31772D01*
X65342Y32152D01*
X62760Y34735D01*
X62380Y34988D01*
X61932Y35078D01*
X60477D01*
X59719Y35836D01*
Y39094D01*
X60073Y39448D01*
X62267D01*
X69937Y31779D01*
D02*
G37*
G36*
X59274Y44618D02*
X56172Y41517D01*
X55919Y41137D01*
X55830Y40689D01*
Y25453D01*
X52380Y22003D01*
X52195D01*
X51630Y21769D01*
X51198Y21338D01*
X50965Y20773D01*
Y20162D01*
X51198Y19598D01*
X51578Y19218D01*
X51542Y18973D01*
X51425Y18719D01*
X44938D01*
X40409Y23247D01*
X40029Y23501D01*
X39581Y23590D01*
X29791D01*
X29343Y23501D01*
X28963Y23247D01*
X27253Y21537D01*
X26999Y21157D01*
X26910Y20709D01*
Y14705D01*
X26999Y14257D01*
X27253Y13877D01*
X28597Y12533D01*
X28508Y12317D01*
X28413Y11600D01*
Y8400D01*
X28508Y7683D01*
X28785Y7014D01*
X28855Y6922D01*
X28608Y6423D01*
X23919D01*
X23673Y6922D01*
X23743Y7014D01*
X24020Y7683D01*
X24114Y8400D01*
Y11600D01*
X24020Y12317D01*
X23743Y12986D01*
X23302Y13560D01*
X22728Y14000D01*
X22060Y14277D01*
X21343Y14372D01*
X20625Y14277D01*
X20426Y14195D01*
X20143Y14619D01*
X22828Y17303D01*
X23081Y17683D01*
X23170Y18131D01*
Y24213D01*
X25701D01*
Y30827D01*
X18299D01*
Y24213D01*
X20830D01*
Y18616D01*
X17367Y15153D01*
X17113Y14774D01*
X17024Y14326D01*
Y7096D01*
X17113Y6648D01*
X17367Y6268D01*
X19211Y4424D01*
X19591Y4171D01*
X20039Y4081D01*
X92804D01*
X93252Y4171D01*
X93632Y4424D01*
X98266Y9059D01*
X98728Y8868D01*
Y8400D01*
X98823Y7683D01*
X99100Y7014D01*
X99540Y6440D01*
X100114Y6000D01*
X100783Y5723D01*
X101500Y5628D01*
X102217Y5723D01*
X102886Y6000D01*
X103460Y6440D01*
X103830Y6922D01*
X104210Y6853D01*
X104330Y6790D01*
Y3001D01*
X104198Y2870D01*
X103965Y2305D01*
Y1695D01*
X104017Y1569D01*
X103683Y1068D01*
X2069D01*
Y42371D01*
X2484Y42649D01*
X2528Y42631D01*
X2713D01*
X4172Y41172D01*
X4552Y40919D01*
X5000Y40830D01*
X8045D01*
X8145Y40330D01*
X7872Y40217D01*
X7223Y39718D01*
X6724Y39068D01*
X6411Y38312D01*
X6304Y37500D01*
X6411Y36688D01*
X6724Y35932D01*
X7223Y35282D01*
X7872Y34783D01*
X8629Y34470D01*
X9441Y34363D01*
X14559D01*
X15371Y34470D01*
X16128Y34783D01*
X16777Y35282D01*
X17276Y35932D01*
X17589Y36688D01*
X17696Y37500D01*
X17589Y38312D01*
X17424Y38710D01*
X20566Y41851D01*
X21155Y41734D01*
X21198Y41630D01*
X21329Y41499D01*
Y38307D01*
X18299D01*
Y31693D01*
X25701D01*
Y37346D01*
X26163Y37538D01*
X28147Y35553D01*
X28560Y35278D01*
X29047Y35181D01*
X30952D01*
Y30300D01*
X37567D01*
Y37701D01*
X32324D01*
X32200Y37726D01*
X29574D01*
X27773Y39527D01*
Y40601D01*
X27802Y40630D01*
X28035Y41195D01*
Y41805D01*
X27802Y42370D01*
X27370Y42802D01*
X26805Y43035D01*
X26195D01*
X25630Y42802D01*
X25198Y42370D01*
X24965Y41805D01*
Y41195D01*
X25198Y40630D01*
X25227Y40601D01*
Y39000D01*
X25266Y38807D01*
X24906Y38307D01*
X23671D01*
Y41499D01*
X23802Y41630D01*
X24035Y42195D01*
Y42805D01*
X23802Y43370D01*
X23370Y43802D01*
X23266Y43845D01*
X23149Y44434D01*
X23832Y45118D01*
X38252D01*
Y38815D01*
X40227D01*
Y37701D01*
X38433D01*
Y30300D01*
X43641D01*
X49340Y24600D01*
X49753Y24324D01*
X50240Y24227D01*
X50689D01*
X50718Y24198D01*
X51283Y23965D01*
X51894D01*
X52458Y24198D01*
X52890Y24630D01*
X53124Y25195D01*
Y25805D01*
X52890Y26370D01*
X52458Y26802D01*
X51894Y27035D01*
X51283D01*
X50732Y26807D01*
X45092Y32447D01*
X45047Y32478D01*
Y37701D01*
X42772D01*
Y38815D01*
X44748D01*
Y45118D01*
X59067D01*
X59274Y44618D01*
D02*
G37*
%LPC*%
G36*
X180500Y84372D02*
X179783Y84277D01*
X179114Y84000D01*
X178540Y83560D01*
X178100Y82986D01*
X177823Y82317D01*
X177728Y81600D01*
Y78400D01*
X177823Y77683D01*
X178100Y77014D01*
X178540Y76440D01*
X179114Y76000D01*
X179783Y75723D01*
X180500Y75628D01*
X181217Y75723D01*
X181886Y76000D01*
X182460Y76440D01*
X182900Y77014D01*
X183177Y77683D01*
X183272Y78400D01*
Y81600D01*
X183177Y82317D01*
X182900Y82986D01*
X182460Y83560D01*
X181886Y84000D01*
X181217Y84277D01*
X180500Y84372D01*
D02*
G37*
G36*
X181500Y14372D02*
X180783Y14277D01*
X180114Y14000D01*
X179540Y13560D01*
X179100Y12986D01*
X178823Y12317D01*
X178728Y11600D01*
Y8400D01*
X178823Y7683D01*
X179100Y7014D01*
X179540Y6440D01*
X180114Y6000D01*
X180783Y5723D01*
X181500Y5628D01*
X182217Y5723D01*
X182886Y6000D01*
X183460Y6440D01*
X183900Y7014D01*
X184177Y7683D01*
X184272Y8400D01*
Y11600D01*
X184177Y12317D01*
X183900Y12986D01*
X183460Y13560D01*
X182886Y14000D01*
X182217Y14277D01*
X181500Y14372D01*
D02*
G37*
G36*
X171500D02*
X170783Y14277D01*
X170114Y14000D01*
X169540Y13560D01*
X169100Y12986D01*
X168823Y12317D01*
X168728Y11600D01*
Y8400D01*
X168823Y7683D01*
X169100Y7014D01*
X169540Y6440D01*
X170114Y6000D01*
X170783Y5723D01*
X171500Y5628D01*
X172217Y5723D01*
X172886Y6000D01*
X173460Y6440D01*
X173900Y7014D01*
X174177Y7683D01*
X174272Y8400D01*
Y11600D01*
X174177Y12317D01*
X173900Y12986D01*
X173460Y13560D01*
X172886Y14000D01*
X172217Y14277D01*
X171500Y14372D01*
D02*
G37*
G36*
X161500D02*
X160783Y14277D01*
X160114Y14000D01*
X159540Y13560D01*
X159100Y12986D01*
X158823Y12317D01*
X158728Y11600D01*
Y8400D01*
X158823Y7683D01*
X159100Y7014D01*
X159540Y6440D01*
X160114Y6000D01*
X160783Y5723D01*
X161500Y5628D01*
X162217Y5723D01*
X162886Y6000D01*
X163460Y6440D01*
X163900Y7014D01*
X164177Y7683D01*
X164272Y8400D01*
Y11600D01*
X164177Y12317D01*
X163900Y12986D01*
X163460Y13560D01*
X162886Y14000D01*
X162217Y14277D01*
X161500Y14372D01*
D02*
G37*
G36*
X151500D02*
X150783Y14277D01*
X150114Y14000D01*
X149540Y13560D01*
X149100Y12986D01*
X148823Y12317D01*
X148728Y11600D01*
Y8400D01*
X148823Y7683D01*
X149100Y7014D01*
X149540Y6440D01*
X150114Y6000D01*
X150783Y5723D01*
X151500Y5628D01*
X152217Y5723D01*
X152886Y6000D01*
X153460Y6440D01*
X153900Y7014D01*
X154177Y7683D01*
X154272Y8400D01*
Y11600D01*
X154177Y12317D01*
X153900Y12986D01*
X153460Y13560D01*
X152886Y14000D01*
X152217Y14277D01*
X151500Y14372D01*
D02*
G37*
G36*
X141500D02*
X140783Y14277D01*
X140114Y14000D01*
X139540Y13560D01*
X139100Y12986D01*
X138823Y12317D01*
X138728Y11600D01*
Y8400D01*
X138823Y7683D01*
X139100Y7014D01*
X139540Y6440D01*
X140114Y6000D01*
X140783Y5723D01*
X141500Y5628D01*
X142217Y5723D01*
X142886Y6000D01*
X143460Y6440D01*
X143900Y7014D01*
X144177Y7683D01*
X144272Y8400D01*
Y11600D01*
X144177Y12317D01*
X143900Y12986D01*
X143460Y13560D01*
X142886Y14000D01*
X142217Y14277D01*
X141500Y14372D01*
D02*
G37*
G36*
X131500D02*
X130783Y14277D01*
X130114Y14000D01*
X129540Y13560D01*
X129100Y12986D01*
X128823Y12317D01*
X128728Y11600D01*
Y8400D01*
X128823Y7683D01*
X129100Y7014D01*
X129540Y6440D01*
X130114Y6000D01*
X130783Y5723D01*
X131500Y5628D01*
X132217Y5723D01*
X132886Y6000D01*
X133460Y6440D01*
X133900Y7014D01*
X134177Y7683D01*
X134272Y8400D01*
Y11600D01*
X134177Y12317D01*
X133900Y12986D01*
X133460Y13560D01*
X132886Y14000D01*
X132217Y14277D01*
X131500Y14372D01*
D02*
G37*
G36*
X121500D02*
X120783Y14277D01*
X120114Y14000D01*
X119540Y13560D01*
X119100Y12986D01*
X118823Y12317D01*
X118728Y11600D01*
Y8400D01*
X118823Y7683D01*
X119100Y7014D01*
X119540Y6440D01*
X120114Y6000D01*
X120783Y5723D01*
X121500Y5628D01*
X122217Y5723D01*
X122886Y6000D01*
X123460Y6440D01*
X123900Y7014D01*
X124177Y7683D01*
X124272Y8400D01*
Y11600D01*
X124177Y12317D01*
X123900Y12986D01*
X123460Y13560D01*
X122886Y14000D01*
X122217Y14277D01*
X121500Y14372D01*
D02*
G37*
G36*
X111500D02*
X110783Y14277D01*
X110114Y14000D01*
X109540Y13560D01*
X109100Y12986D01*
X108823Y12317D01*
X108728Y11600D01*
Y8400D01*
X108823Y7683D01*
X109100Y7014D01*
X109540Y6440D01*
X110114Y6000D01*
X110783Y5723D01*
X111500Y5628D01*
X112217Y5723D01*
X112886Y6000D01*
X113460Y6440D01*
X113900Y7014D01*
X114177Y7683D01*
X114272Y8400D01*
Y11600D01*
X114177Y12317D01*
X113900Y12986D01*
X113460Y13560D01*
X112886Y14000D01*
X112217Y14277D01*
X111500Y14372D01*
D02*
G37*
G36*
X80500Y84372D02*
X79783Y84277D01*
X79114Y84000D01*
X78540Y83560D01*
X78100Y82986D01*
X77823Y82317D01*
X77728Y81600D01*
Y78400D01*
X77823Y77683D01*
X78100Y77014D01*
X78540Y76440D01*
X79114Y76000D01*
X79783Y75723D01*
X80500Y75628D01*
X81217Y75723D01*
X81886Y76000D01*
X82460Y76440D01*
X82900Y77014D01*
X83177Y77683D01*
X83272Y78400D01*
Y81600D01*
X83177Y82317D01*
X82900Y82986D01*
X82460Y83560D01*
X81886Y84000D01*
X81217Y84277D01*
X80500Y84372D01*
D02*
G37*
G36*
X70500D02*
X69783Y84277D01*
X69114Y84000D01*
X68540Y83560D01*
X68100Y82986D01*
X67823Y82317D01*
X67728Y81600D01*
Y78400D01*
X67823Y77683D01*
X68100Y77014D01*
X68540Y76440D01*
X69114Y76000D01*
X69783Y75723D01*
X70500Y75628D01*
X71217Y75723D01*
X71886Y76000D01*
X72460Y76440D01*
X72900Y77014D01*
X73177Y77683D01*
X73272Y78400D01*
Y81600D01*
X73177Y82317D01*
X72900Y82986D01*
X72460Y83560D01*
X71886Y84000D01*
X71217Y84277D01*
X70500Y84372D01*
D02*
G37*
G36*
X60500D02*
X59783Y84277D01*
X59114Y84000D01*
X58540Y83560D01*
X58100Y82986D01*
X57823Y82317D01*
X57728Y81600D01*
Y78400D01*
X57823Y77683D01*
X58100Y77014D01*
X58540Y76440D01*
X59114Y76000D01*
X59783Y75723D01*
X60500Y75628D01*
X61217Y75723D01*
X61886Y76000D01*
X62460Y76440D01*
X62900Y77014D01*
X63177Y77683D01*
X63272Y78400D01*
Y81600D01*
X63177Y82317D01*
X62900Y82986D01*
X62460Y83560D01*
X61886Y84000D01*
X61217Y84277D01*
X60500Y84372D01*
D02*
G37*
G36*
X50500D02*
X49783Y84277D01*
X49114Y84000D01*
X48540Y83560D01*
X48100Y82986D01*
X47823Y82317D01*
X47728Y81600D01*
Y78400D01*
X47823Y77683D01*
X48100Y77014D01*
X48540Y76440D01*
X49114Y76000D01*
X49783Y75723D01*
X50500Y75628D01*
X51217Y75723D01*
X51886Y76000D01*
X52460Y76440D01*
X52900Y77014D01*
X53177Y77683D01*
X53272Y78400D01*
Y81600D01*
X53177Y82317D01*
X52900Y82986D01*
X52460Y83560D01*
X51886Y84000D01*
X51217Y84277D01*
X50500Y84372D01*
D02*
G37*
G36*
X40500D02*
X39783Y84277D01*
X39114Y84000D01*
X38540Y83560D01*
X38100Y82986D01*
X37823Y82317D01*
X37728Y81600D01*
Y78400D01*
X37823Y77683D01*
X38100Y77014D01*
X38540Y76440D01*
X39114Y76000D01*
X39783Y75723D01*
X40500Y75628D01*
X41217Y75723D01*
X41886Y76000D01*
X42460Y76440D01*
X42900Y77014D01*
X43177Y77683D01*
X43272Y78400D01*
Y81600D01*
X43177Y82317D01*
X42900Y82986D01*
X42460Y83560D01*
X41886Y84000D01*
X41217Y84277D01*
X40500Y84372D01*
D02*
G37*
G36*
X30185D02*
X29468Y84277D01*
X28799Y84000D01*
X28225Y83560D01*
X27785Y82986D01*
X27508Y82317D01*
X27413Y81600D01*
Y78400D01*
X27508Y77683D01*
X27785Y77014D01*
X28225Y76440D01*
X28799Y76000D01*
X29468Y75723D01*
X30185Y75628D01*
X30902Y75723D01*
X31571Y76000D01*
X32145Y76440D01*
X32585Y77014D01*
X32862Y77683D01*
X32957Y78400D01*
Y81600D01*
X32862Y82317D01*
X32585Y82986D01*
X32145Y83560D01*
X31571Y84000D01*
X30902Y84277D01*
X30185Y84372D01*
D02*
G37*
G36*
X20343D02*
X19625Y84277D01*
X18957Y84000D01*
X18383Y83560D01*
X17942Y82986D01*
X17665Y82317D01*
X17571Y81600D01*
Y78400D01*
X17665Y77683D01*
X17942Y77014D01*
X18383Y76440D01*
X18957Y76000D01*
X19625Y75723D01*
X20343Y75628D01*
X21060Y75723D01*
X21729Y76000D01*
X22302Y76440D01*
X22743Y77014D01*
X23020Y77683D01*
X23114Y78400D01*
Y81600D01*
X23020Y82317D01*
X22743Y82986D01*
X22302Y83560D01*
X21729Y84000D01*
X21060Y84277D01*
X20343Y84372D01*
D02*
G37*
G36*
X14559Y60637D02*
X9441D01*
X8629Y60530D01*
X7872Y60217D01*
X7223Y59718D01*
X6724Y59069D01*
X6411Y58312D01*
X6304Y57500D01*
X6411Y56688D01*
X6724Y55932D01*
X7223Y55282D01*
X7872Y54783D01*
X8629Y54470D01*
X9441Y54363D01*
X14559D01*
X15371Y54470D01*
X16128Y54783D01*
X16777Y55282D01*
X17276Y55932D01*
X17589Y56688D01*
X17696Y57500D01*
X17589Y58312D01*
X17276Y59069D01*
X16777Y59718D01*
X16128Y60217D01*
X15371Y60530D01*
X14559Y60637D01*
D02*
G37*
G36*
X23305Y70535D02*
X22695D01*
X22130Y70302D01*
X21698Y69870D01*
X21465Y69305D01*
Y68695D01*
X21698Y68130D01*
X21829Y67999D01*
Y63047D01*
X18799D01*
Y56433D01*
X26200D01*
Y62648D01*
X26200Y62793D01*
X26420Y62884D01*
X26700Y63000D01*
X27259Y62442D01*
Y60532D01*
X27356Y60045D01*
X27632Y59632D01*
X29815Y57449D01*
Y52752D01*
X36311D01*
Y59248D01*
X33272D01*
Y67601D01*
X33302Y67630D01*
X33535Y68195D01*
Y68805D01*
X33302Y69370D01*
X32870Y69802D01*
X32305Y70035D01*
X31695D01*
X31130Y69802D01*
X30698Y69370D01*
X30465Y68805D01*
Y68195D01*
X30698Y67630D01*
X30727Y67601D01*
Y60789D01*
X30266Y60597D01*
X29804Y61059D01*
Y62969D01*
X29760Y63189D01*
X29707Y63456D01*
X29707Y63456D01*
X29431Y63869D01*
X29431Y63869D01*
X27535Y65764D01*
Y65805D01*
X27302Y66370D01*
X26870Y66802D01*
X26305Y67035D01*
X25695D01*
X25130Y66802D01*
X24698Y66370D01*
X24670Y66303D01*
X24171Y66402D01*
Y67999D01*
X24302Y68130D01*
X24535Y68695D01*
Y69305D01*
X24302Y69870D01*
X23870Y70302D01*
X23305Y70535D01*
D02*
G37*
%LPD*%
D11*
X26500Y39000D02*
Y41500D01*
Y39000D02*
X29047Y36453D01*
X32000Y57063D02*
Y68500D01*
X28531Y60532D02*
X33063Y56000D01*
X26000Y65500D02*
X28531Y62969D01*
X32000Y57063D02*
X33063Y56000D01*
X28531Y60532D02*
Y62969D01*
X50240Y25500D02*
X51588D01*
X44193Y31548D02*
X50240Y25500D01*
X41740Y33607D02*
X43799Y31548D01*
X41740Y33607D02*
Y34000D01*
X43799Y31548D02*
X44193D01*
X41500Y34241D02*
X41740Y34000D01*
X41500Y34241D02*
Y42063D01*
X29047Y36453D02*
X32200D01*
X34259Y34394D01*
Y34000D02*
Y34394D01*
D47*
X104400Y56611D02*
G03*
X104559Y56383I725J338D01*
G01*
X105951Y57587D02*
G03*
X106179Y56952I797J-72D01*
G01*
X109261Y72109D02*
G03*
X109028Y71947I332J-728D01*
G01*
X105391Y49324D02*
G03*
X105160Y48830I566J-566D01*
G01*
X156331Y37500D02*
G03*
X154669Y37500I-831J-4016D01*
G01*
X156331D02*
G03*
X154669Y37500I-831J-4016D01*
G01*
X156331D02*
G03*
X154669Y37500I-831J-4016D01*
G01*
X156331D02*
G03*
X154669Y37500I-831J-4016D01*
G01*
X166000Y84000D02*
X168448D01*
X166000Y81552D02*
Y84000D01*
X165448Y81000D02*
X166000Y81552D01*
X168448Y84000D02*
X169196Y84748D01*
X163648Y81000D02*
X165448D01*
X169196Y84748D02*
X171804D01*
X898Y367D02*
X1367Y-102D01*
X176050Y73050D02*
Y85633D01*
X898Y367D02*
Y85633D01*
X86500Y82052D02*
X89419Y84971D01*
X176050Y85633D02*
X176519Y86102D01*
X898Y85633D02*
X1367Y86102D01*
X208633D02*
X209102Y85633D01*
X88950Y86102D02*
X89419Y85633D01*
X208633Y-102D02*
X209102Y367D01*
X171392Y68392D02*
X176050Y73050D01*
X1367Y-102D02*
X208633D01*
X176519Y86102D02*
X208633D01*
X1367D02*
X88950D01*
X89419Y84971D02*
Y85633D01*
X2833Y44166D02*
X5000Y42000D01*
X209102Y367D02*
Y85633D01*
X5582Y53000D02*
X6323Y52260D01*
X3500Y53000D02*
X5582D01*
X6323Y52260D02*
X22500D01*
X59000Y22000D02*
X61595Y24595D01*
Y30115D01*
X64515Y24225D02*
Y31324D01*
X44453Y17548D02*
X57838D01*
X64515Y24225D01*
X99877Y49049D02*
Y50376D01*
X100015Y50514D01*
X101964Y54036D02*
X102113Y53887D01*
X101964Y54036D02*
Y54599D01*
X94500Y62063D02*
X101964Y54599D01*
X102145Y51142D02*
X102831D01*
X90856Y58420D02*
X94500Y62063D01*
X101223Y52065D02*
X102145Y51142D01*
X99435Y48607D02*
X99877Y49049D01*
X101198Y52065D02*
X101223D01*
X99232Y52765D02*
X100498D01*
X99435Y39935D02*
Y48607D01*
X100498Y52765D02*
X101198Y52065D01*
X104559Y56383D02*
X104561Y56381D01*
X104328Y57022D02*
X104400Y56611D01*
X102831Y51142D02*
X104048Y52359D01*
X103473Y49594D02*
X103783Y49905D01*
X104048Y52359D02*
Y54705D01*
X102209Y48581D02*
X102434Y48806D01*
X104561Y56381D02*
X105596Y55346D01*
X102903Y49275D02*
X103473Y49594D01*
X104328Y57022D02*
X105259Y67699D01*
X103783Y49905D02*
X105596Y51718D01*
X102434Y48806D02*
X102903Y49275D01*
X98933Y52170D02*
X99232Y52765D01*
X90562Y43799D02*
X98933Y52170D01*
X105951Y57587D02*
X106806Y67059D01*
X109261Y72109D02*
X111319Y73048D01*
X108692Y49000D02*
Y60276D01*
X97914Y65273D02*
X100981Y62206D01*
X108662Y71581D02*
X109028Y71947D01*
X106182Y56949D02*
X107144Y55987D01*
X105391Y49324D02*
X107144Y51076D01*
X106179Y56952D02*
X106182Y56949D01*
X100981Y57772D02*
X104048Y54705D01*
X105596Y51718D02*
Y55346D01*
X108662Y60306D02*
X108692Y60276D01*
X108662Y60306D02*
Y71581D01*
X107030Y47338D02*
X108692Y49000D01*
X107144Y51076D02*
Y55987D01*
X100981Y57772D02*
Y62206D01*
X105044Y47541D02*
X105160Y48830D01*
X97476Y65711D02*
X97914Y65273D01*
X95026Y65711D02*
X97476D01*
X102314Y70046D02*
X102646Y69714D01*
X101000Y74000D02*
X102314Y72686D01*
Y70046D02*
Y72686D01*
X94500Y66237D02*
X95026Y65711D01*
X94500Y66237D02*
Y69937D01*
X110500Y47500D02*
X117000Y41000D01*
X110500Y47500D02*
Y69943D01*
Y70040D02*
X111960Y71500D01*
X117000D01*
X110500Y69943D02*
X110597Y70040D01*
X23000Y60240D02*
Y69000D01*
X22500Y59740D02*
X23000Y60240D01*
X22500Y35500D02*
Y42500D01*
X22000Y35000D02*
X22500Y35500D01*
X140000Y46000D02*
X151500Y57500D01*
X136621Y45500D02*
X147500Y56379D01*
X131311Y45500D02*
X136621D01*
X147500Y56379D02*
Y72561D01*
X143565Y43565D02*
X150435Y50435D01*
X138141Y43787D02*
X138476D01*
X138698Y43565D02*
X143565D01*
X131952Y43952D02*
X137767D01*
X138048Y43880D02*
X138141Y43787D01*
X138476D02*
X138698Y43565D01*
X151500Y57500D02*
Y62063D01*
X137767Y43952D02*
X137783Y43935D01*
X138048Y43880D02*
Y43952D01*
X105500Y14500D02*
X132881Y41881D01*
X144619D01*
X119495Y31495D02*
X131952Y43952D01*
X131237Y47048D02*
X139852Y55663D01*
X130670Y47048D02*
X131237D01*
X121356Y37734D02*
X130670Y47048D01*
X120771Y34961D02*
X131311Y45500D01*
X150435Y50435D02*
X159933D01*
X148812Y46312D02*
X149049D01*
X144500Y42000D02*
X148812Y46312D01*
X149049D02*
X150619Y47881D01*
X119500Y61126D02*
X124004Y56621D01*
X126392D01*
X130048Y56825D02*
X130115Y56758D01*
X128328Y51834D02*
Y59734D01*
X130115Y55085D02*
Y56758D01*
Y55085D02*
X130263Y54937D01*
X132915Y55929D02*
X134106D01*
X134123Y55946D01*
X128328Y51834D02*
X130749Y49412D01*
X127000Y61063D02*
X128328Y59734D01*
X130048Y56825D02*
Y57487D01*
X132447Y56398D02*
X132915Y55929D01*
X132447Y56398D02*
Y59101D01*
X134606Y61260D02*
X135000D01*
X132447Y59101D02*
X134606Y61260D01*
X131412Y49412D02*
X132871Y50871D01*
Y55710D01*
X130749Y49412D02*
X131412D01*
X139852Y55663D02*
Y72913D01*
X134978Y48000D02*
X136000D01*
X141400Y53400D01*
X130899Y58338D02*
Y71774D01*
X130048Y57487D02*
X130899Y58338D01*
Y71774D02*
X137300Y78176D01*
X115292Y37734D02*
X121356D01*
X141400Y53400D02*
Y59963D01*
X106506Y31495D02*
X119495D01*
X106504Y31497D02*
X106506Y31495D01*
X112690Y34961D02*
X120771D01*
X141400Y59963D02*
X143500Y62063D01*
X159933Y50435D02*
X162648Y53150D01*
X105500Y2000D02*
Y14500D01*
X139852Y72913D02*
X140643Y73704D01*
X83072Y66227D02*
X89862D01*
X62918Y60418D02*
X68727Y66227D01*
X83072D01*
X83072D01*
X89862D02*
X90852Y67217D01*
Y72913D01*
X80710Y59500D02*
X81570Y60361D01*
X80500Y59500D02*
X80710D01*
X81570Y60361D02*
X84341D01*
X90852Y72913D02*
X91939Y74000D01*
X67000Y55000D02*
X70120Y58120D01*
X78880D02*
X79435Y57565D01*
X81936D02*
X82791Y58420D01*
X79311Y55500D02*
X84000D01*
X70120Y58120D02*
X78880D01*
X79435Y57565D02*
X81936D01*
X82791Y58420D02*
X90856D01*
X78239Y56572D02*
X79311Y55500D01*
X76816Y56572D02*
X78239D01*
X47000Y60500D02*
X51500D01*
X23348Y46289D02*
X62449D01*
X62918Y46757D02*
Y60418D01*
X43937Y53000D02*
X59000D01*
X51500Y60500D02*
X59000Y53000D01*
X62449Y46289D02*
X62918Y46757D01*
X64244Y44000D02*
X76816Y56572D01*
X66500Y41000D02*
X75469Y49969D01*
X81485D01*
X106831Y67331D02*
X107114Y67614D01*
X105283Y67972D02*
X105566Y68255D01*
X107114Y72310D02*
X108327Y73524D01*
X107030Y41474D02*
Y47338D01*
X107114Y67614D02*
Y72310D01*
X105566Y72951D02*
X107452Y74837D01*
X105566Y68255D02*
Y72951D01*
X106831Y67331D02*
Y67331D01*
X106806Y67059D02*
X106831Y67331D01*
X105259Y67699D02*
X105283Y67972D01*
Y67972D01*
X149059Y78559D02*
X150500Y80000D01*
X147300Y78559D02*
X149059D01*
X142445Y73704D02*
X147300Y78559D01*
X140643Y73704D02*
X142445D01*
X151804Y84748D02*
X153648Y82904D01*
X145600Y72850D02*
X148002Y75252D01*
X153648Y78548D02*
Y82904D01*
X145600Y72037D02*
Y72850D01*
X153648Y78548D02*
X155031D01*
X148643Y73704D02*
X155135D01*
X151804Y75252D02*
X153648Y77096D01*
X160500Y79069D02*
Y80000D01*
X155135Y73704D02*
X160500Y79069D01*
X155031Y78548D02*
X155500Y79017D01*
X147500Y72561D02*
X148643Y73704D01*
X148002Y75252D02*
X151804D01*
X155500Y79017D02*
Y81052D01*
X153648Y77096D02*
Y78548D01*
X163648Y77096D02*
Y81000D01*
X158225Y72037D02*
X160754Y74567D01*
X161119D02*
X163648Y77096D01*
X160754Y74567D02*
X161119D01*
X155500Y81052D02*
X159196Y84748D01*
X161804D01*
X111763Y41000D02*
X117000D01*
X109317Y38554D02*
X111763Y41000D01*
X111500Y38000D02*
X115027D01*
X105821Y38554D02*
X109317D01*
X115027Y38000D02*
X115292Y37734D01*
X101500Y38500D02*
X101577Y38577D01*
X106495Y31495D02*
X106501D01*
X105798Y38577D02*
X105821Y38554D01*
X98352Y23352D02*
X106495Y31495D01*
X101577Y38577D02*
X105798D01*
X124500Y26126D02*
Y30000D01*
X153716Y37500D02*
X154669D01*
X153716D02*
X154669D01*
X145500Y29284D02*
X153716Y37500D01*
X156331D02*
X165031D01*
X132784Y29284D02*
X145500D01*
X153716Y37500D02*
X154669D01*
X165500Y32500D02*
Y37031D01*
X156331Y37500D02*
X165031D01*
X156331D02*
X165031D01*
X165500Y37031D01*
X5000Y42000D02*
X10500D01*
X12000Y43500D01*
Y47500D01*
X22500Y52260D02*
X24659Y50100D01*
X25357D02*
X25521Y49937D01*
X24659Y50100D02*
X25357D01*
X25521Y49937D02*
X41500D01*
X52500Y20468D02*
X57000Y24968D01*
X72414Y24761D02*
Y26753D01*
X58548Y39579D02*
X59588Y40619D01*
X58548Y35351D02*
Y39579D01*
X57000Y40689D02*
X60311Y44000D01*
X59588Y40619D02*
X62752D01*
X58548Y35351D02*
X59992Y33907D01*
X57000Y24968D02*
Y40689D01*
X61468Y37699D02*
X72414Y26753D01*
X59992Y33907D02*
X61932D01*
X64515Y31324D01*
X29791Y22420D02*
X39581D01*
X44453Y17548D01*
X21291Y73000D02*
X34500D01*
X47000Y60500D01*
X17491Y76800D02*
X21291Y73000D01*
X14559Y37500D02*
X23348Y46289D01*
X105457Y35657D02*
X105477Y35678D01*
X111973D01*
X93284Y33784D02*
X99435Y39935D01*
X78097Y33784D02*
X93284D01*
X95534Y44466D02*
X97500Y42500D01*
X93513Y44466D02*
X95534D01*
X92575Y43529D02*
X93513Y44466D01*
X103770Y44263D02*
X105044Y47541D01*
X90832Y43529D02*
X92575D01*
X84700Y37937D02*
X84970Y38207D01*
X90562Y43799D01*
X101420Y47854D02*
X102209Y48581D01*
X85240Y37937D02*
X90832Y43529D01*
X84700Y37937D02*
X85240D01*
X81000D02*
X84700D01*
X70765Y32606D02*
X76920D01*
X78097Y33784D01*
X113500Y67126D02*
Y69500D01*
Y67126D02*
X119500Y61126D01*
X111319Y73048D02*
X117641D01*
X117234Y71266D02*
X119500Y69000D01*
X117000Y71500D02*
X117234Y71266D01*
X110500Y78400D02*
Y80000D01*
X107452Y74837D02*
X107921Y75306D01*
X118772Y72882D02*
X119434Y72882D01*
X120031Y77931D02*
X120500Y78400D01*
X119500Y69000D02*
X122883D01*
X108327Y73524D02*
X110677Y74596D01*
X117641Y73048D02*
X118772Y72882D01*
X110677Y74596D02*
X120031Y77931D01*
X120500Y78400D02*
Y80000D01*
X107921Y75306D02*
X110500Y78400D01*
X119434Y72882D02*
X125352Y78800D01*
X123352Y69469D02*
Y71912D01*
X126203Y74763D01*
X122883Y69000D02*
X123352Y69469D01*
X60311Y44000D02*
X64244D01*
X86500Y70000D02*
Y82052D01*
X91939Y74000D02*
X101000D01*
X111973Y35678D02*
X112690Y34961D01*
X162648Y53150D02*
Y59102D01*
X170998Y64340D02*
Y67660D01*
X171392Y68054D02*
Y68392D01*
X170998Y67660D02*
X171392Y68054D01*
X171392Y60554D02*
Y63946D01*
X170998Y64340D02*
X171392Y63946D01*
X169071Y58233D02*
X171392Y60554D01*
X12000Y37500D02*
X14559D01*
X98352Y10800D02*
Y23352D01*
X92804Y5252D02*
X98352Y10800D01*
X20039Y5252D02*
X92804D01*
X18195Y7096D02*
X20039Y5252D01*
X18195Y7096D02*
Y14326D01*
X22000Y18131D01*
Y27520D01*
X170305Y74633D02*
X171185D01*
X167843Y72171D02*
X170305Y74633D01*
X163648Y81000D02*
Y82904D01*
X173648Y77096D02*
Y82904D01*
X171185Y74633D02*
X173648Y77096D01*
X167843Y69750D02*
Y72171D01*
X171804Y84748D02*
X173648Y82904D01*
X164265Y72165D02*
X170500Y78400D01*
X160542Y72165D02*
X164265D01*
X153600Y72037D02*
X158225D01*
X155352Y66976D02*
X160542Y72165D01*
X155352Y61024D02*
Y66976D01*
Y61024D02*
X156313Y60063D01*
X84341Y60361D02*
X86500Y62520D01*
X176000Y51063D02*
X184500Y59563D01*
X176000Y48000D02*
Y51063D01*
X170619Y45969D02*
Y57592D01*
X171088Y45500D02*
X177061D01*
X170619Y45969D02*
X171088Y45500D01*
X177061D02*
X188148Y56588D01*
X165500Y23484D02*
X169601Y27585D01*
X172940Y59913D02*
Y64588D01*
X172546Y65644D02*
X175832Y68930D01*
X172546Y64982D02*
Y65644D01*
Y64982D02*
X172940Y64588D01*
X169071Y43174D02*
X169601Y42644D01*
X170619Y57592D02*
X172940Y59913D01*
X169071Y43174D02*
Y58233D01*
X169601Y27585D02*
Y42644D01*
X165500Y22500D02*
Y23484D01*
X175281Y64639D02*
X175605D01*
X174608Y63966D02*
X175281Y64639D01*
X175605D02*
X176977Y66010D01*
X178158D01*
X175619Y59563D02*
X184500D01*
X187476Y63211D02*
X188148Y62539D01*
X174608Y60574D02*
Y63966D01*
X178978Y63090D02*
X181404D01*
X174608Y60574D02*
X175619Y59563D01*
X178158Y62270D02*
X178978Y63090D01*
X181525Y63211D02*
X187476D01*
X188148Y56588D02*
Y62539D01*
X181404Y63090D02*
X181525Y63211D01*
X178158Y66010D02*
X179339D01*
X155500Y22500D02*
Y32500D01*
X137813Y75252D02*
X141804D01*
X143648Y79200D02*
Y82904D01*
Y77096D02*
Y79200D01*
X131315Y74763D02*
X134166Y77614D01*
X141804Y75252D02*
X143648Y77096D01*
X136004Y73443D02*
X137813Y75252D01*
X135000Y68740D02*
X136004Y69745D01*
X129300Y78800D02*
X130500Y80000D01*
X126203Y74763D02*
X131315D01*
X134166Y77614D02*
Y79718D01*
X139196Y84748D01*
X141804D01*
X143648Y82904D01*
X136004Y69745D02*
Y73443D01*
X125352Y78800D02*
X129300D01*
X143648Y79200D02*
X149196Y84748D01*
X151804D01*
X143500Y69937D02*
X145600Y72037D01*
X161804Y84748D02*
X163648Y82904D01*
X151500Y69937D02*
X153600Y72037D01*
X170500Y78400D02*
Y80000D01*
X66000Y19000D02*
X69585Y15415D01*
X90976D01*
X91648Y16088D01*
Y22039D01*
X90976Y22711D02*
X91648Y22039D01*
X85374Y22711D02*
X90976D01*
X84906Y23180D02*
X85374Y22711D01*
X84906Y23180D02*
Y23843D01*
X88000Y26937D01*
X28080Y14705D02*
Y20709D01*
Y14705D02*
X31185Y11600D01*
Y10000D02*
Y11600D01*
X28080Y20709D02*
X29791Y22420D01*
X74000Y20690D02*
Y21432D01*
Y20690D02*
X75690Y19000D01*
X87937D01*
X33768Y16000D02*
X63000D01*
X66000Y19000D01*
X175832Y68930D02*
X177337D01*
X178158Y69750D01*
X181972Y69537D02*
X182400D01*
X181759Y69750D02*
X181972Y69537D01*
X182400D02*
X184500Y67437D01*
X178158Y69750D02*
X181759D01*
X184543Y67480D02*
X193500D01*
X184500Y67437D02*
X184543Y67480D01*
X87937Y19000D02*
X88000Y19063D01*
X78468Y25900D02*
Y27531D01*
X81000Y30063D01*
X62752Y40619D02*
X70765Y32606D01*
X74000Y21432D02*
X78468Y25900D01*
X72414Y24761D02*
X74000Y23175D01*
Y21432D02*
Y23175D01*
X156313Y60063D02*
X161687D01*
X162648Y59102D01*
X164912Y64000D02*
X166662Y62250D01*
X159000Y64000D02*
X164912D01*
X166662Y62250D02*
X167843D01*
X139022Y78176D02*
X140500Y79654D01*
X137300Y78176D02*
X139022D01*
X140500Y79654D02*
Y80000D01*
X119500Y61126D02*
X121600Y63226D01*
X122539D01*
X124900Y65587D01*
Y66837D01*
X127000Y68937D01*
X156900Y58226D02*
X159000Y56126D01*
X151500Y62063D02*
X155338Y58226D01*
X156900D01*
X40937Y56000D02*
X43937Y53000D01*
X40937Y50500D02*
X41500Y49937D01*
X40937Y50500D02*
Y56000D01*
X193500Y49210D02*
X194500Y48210D01*
Y48000D02*
Y48210D01*
X193500Y49210D02*
Y60000D01*
X197601Y46310D02*
Y63773D01*
X196500Y45210D02*
X197601Y46310D01*
X196500Y45000D02*
Y45210D01*
X193500Y67480D02*
X193894D01*
X197601Y63773D01*
X130606Y20020D02*
X131000D01*
X124500Y26126D02*
X130606Y20020D01*
X152156Y16344D02*
X181208D01*
X147500Y21000D02*
X152156Y16344D01*
X181208D02*
X186352Y11200D01*
X190300D01*
X131000Y27500D02*
X132784Y29284D01*
X12100Y76800D02*
X17491D01*
X10500Y78400D02*
X12100Y76800D01*
X10500Y78400D02*
Y80000D01*
X31000Y18768D02*
X33768Y16000D01*
X31000Y18768D02*
Y19500D01*
X190300Y11200D02*
X191500Y10000D01*
D48*
X10500Y80000D02*
D03*
X11500Y10000D02*
D03*
D49*
X20343Y80000D02*
D03*
X30185D02*
D03*
X40500D02*
D03*
X50500D02*
D03*
X60500D02*
D03*
X70500D02*
D03*
X90500D02*
D03*
X80500D02*
D03*
X100500D02*
D03*
X110500D02*
D03*
X120500D02*
D03*
X130500D02*
D03*
X140500D02*
D03*
X150500D02*
D03*
X160500D02*
D03*
X170500D02*
D03*
X180500D02*
D03*
X190500D02*
D03*
X200500D02*
D03*
X201500Y10000D02*
D03*
X191500D02*
D03*
X181500D02*
D03*
X171500D02*
D03*
X161500D02*
D03*
X151500D02*
D03*
X141500D02*
D03*
X131500D02*
D03*
X121500D02*
D03*
X111500D02*
D03*
X101500D02*
D03*
X81500D02*
D03*
X91500D02*
D03*
X71500D02*
D03*
X61500D02*
D03*
X51500D02*
D03*
X41500D02*
D03*
X31185D02*
D03*
X21343D02*
D03*
D50*
X165500Y22500D02*
D03*
X155500D02*
D03*
Y32500D02*
D03*
X165500D02*
D03*
X175500Y22500D02*
D03*
Y32500D02*
D03*
D51*
X12000Y57500D02*
D03*
Y47500D02*
D03*
Y37500D02*
D03*
D52*
Y27500D02*
D03*
D53*
X166000Y84000D02*
D03*
X2833Y44166D02*
D03*
X3500Y53000D02*
D03*
X59000Y22000D02*
D03*
X105457Y35657D02*
D03*
X102113Y53887D02*
D03*
X100015Y50514D02*
D03*
X102646Y69714D02*
D03*
X23000Y69000D02*
D03*
X22500Y42500D02*
D03*
X26500Y41500D02*
D03*
X140000Y46000D02*
D03*
X137783Y43935D02*
D03*
X144619Y41881D02*
D03*
X150619Y47881D02*
D03*
X126392Y56621D02*
D03*
X134123Y55946D02*
D03*
X130263Y54937D02*
D03*
X134978Y48000D02*
D03*
X80500Y59500D02*
D03*
X59000Y53000D02*
D03*
X110597Y70040D02*
D03*
X101500Y38500D02*
D03*
X111500Y38000D02*
D03*
X106501Y31495D02*
D03*
X124500Y30000D02*
D03*
X107030Y41474D02*
D03*
X51588Y25500D02*
D03*
X61595Y30115D02*
D03*
X61468Y37699D02*
D03*
X32000Y68500D02*
D03*
X117000Y41000D02*
D03*
X97500Y42500D02*
D03*
X103770Y44263D02*
D03*
X101420Y47854D02*
D03*
X113500Y69500D02*
D03*
X105500Y2000D02*
D03*
X67000Y55000D02*
D03*
X176000Y48000D02*
D03*
X74000Y21432D02*
D03*
X52500Y20468D02*
D03*
X66000Y19000D02*
D03*
X26000Y65500D02*
D03*
X194500Y48000D02*
D03*
X196500Y45000D02*
D03*
X66500Y41000D02*
D03*
X84000Y55500D02*
D03*
X81485Y49969D02*
D03*
X31000Y19500D02*
D03*
X147500Y21000D02*
D03*
D54*
X86500Y70000D02*
D03*
Y62520D02*
D03*
X193500Y67480D02*
D03*
Y60000D02*
D03*
X135000Y68740D02*
D03*
Y61260D02*
D03*
X131000Y27500D02*
D03*
Y20020D02*
D03*
X22500Y59740D02*
D03*
Y52260D02*
D03*
X22000Y35000D02*
D03*
Y27520D02*
D03*
D55*
X184500Y67437D02*
D03*
Y59563D02*
D03*
X151500Y69937D02*
D03*
Y62063D02*
D03*
X127000Y68937D02*
D03*
Y61063D02*
D03*
X119500Y61126D02*
D03*
X119500Y69000D02*
D03*
X41500Y49937D02*
D03*
Y42063D02*
D03*
X159000Y64000D02*
D03*
Y56126D02*
D03*
X143500Y62063D02*
D03*
Y69937D02*
D03*
X81000Y37937D02*
D03*
X81000Y30063D02*
D03*
X88000Y26937D02*
D03*
X88000Y19063D02*
D03*
X94500Y69937D02*
D03*
X94500Y62063D02*
D03*
D56*
X167843Y62250D02*
D03*
X178158Y66010D02*
D03*
Y69750D02*
D03*
Y62270D02*
D03*
X167843Y69750D02*
D03*
D57*
X34259Y34000D02*
D03*
X41740D02*
D03*
D58*
X33063Y56000D02*
D03*
X40937D02*
D03*
M02*
