G04*
G04 #@! TF.GenerationSoftware,Altium Limited,Altium Designer,22.10.1 (41)*
G04*
G04 Layer_Color=16711935*
%FSLAX25Y25*%
%MOIN*%
G70*
G04*
G04 #@! TF.SameCoordinates,E3A0FBDB-8A8B-4B96-B359-3B6F4FC795B9*
G04*
G04*
G04 #@! TF.FilePolarity,Negative*
G04*
G01*
G75*
%ADD41R,0.04800X0.08000*%
%ADD42O,0.04800X0.08000*%
%ADD43O,0.06706X0.08674*%
%ADD44O,0.10642X0.05524*%
%ADD45R,0.10642X0.05524*%
%ADD46C,0.02375*%
%ADD59R,0.06506X0.05718*%
%ADD60R,0.05600X0.05600*%
%ADD61R,0.05403X0.03041*%
%ADD62R,0.05718X0.06506*%
%ADD63R,0.05600X0.05600*%
D41*
X10500Y80000D02*
D03*
X11500Y10000D02*
D03*
D42*
X20343Y80000D02*
D03*
X30185D02*
D03*
X40500D02*
D03*
X50500D02*
D03*
X60500D02*
D03*
X70500D02*
D03*
X90500D02*
D03*
X80500D02*
D03*
X100500D02*
D03*
X110500D02*
D03*
X120500D02*
D03*
X130500D02*
D03*
X140500D02*
D03*
X150500D02*
D03*
X160500D02*
D03*
X170500D02*
D03*
X180500D02*
D03*
X190500D02*
D03*
X200500D02*
D03*
X201500Y10000D02*
D03*
X191500D02*
D03*
X181500D02*
D03*
X171500D02*
D03*
X161500D02*
D03*
X151500D02*
D03*
X141500D02*
D03*
X131500D02*
D03*
X121500D02*
D03*
X111500D02*
D03*
X101500D02*
D03*
X81500D02*
D03*
X91500D02*
D03*
X71500D02*
D03*
X61500D02*
D03*
X51500D02*
D03*
X41500D02*
D03*
X31185D02*
D03*
X21343D02*
D03*
D43*
X165500Y22500D02*
D03*
X155500D02*
D03*
Y32500D02*
D03*
X165500D02*
D03*
X175500Y22500D02*
D03*
Y32500D02*
D03*
D44*
X12000Y57500D02*
D03*
Y47500D02*
D03*
Y37500D02*
D03*
D45*
Y27500D02*
D03*
D46*
X166000Y84000D02*
D03*
X2833Y44166D02*
D03*
X3500Y53000D02*
D03*
X59000Y22000D02*
D03*
X105457Y35657D02*
D03*
X102113Y53887D02*
D03*
X100015Y50514D02*
D03*
X102646Y69714D02*
D03*
X23000Y69000D02*
D03*
X22500Y42500D02*
D03*
X26500Y41500D02*
D03*
X140000Y46000D02*
D03*
X137783Y43935D02*
D03*
X144619Y41881D02*
D03*
X150619Y47881D02*
D03*
X126392Y56621D02*
D03*
X134123Y55946D02*
D03*
X130263Y54937D02*
D03*
X134978Y48000D02*
D03*
X80500Y59500D02*
D03*
X59000Y53000D02*
D03*
X110597Y70040D02*
D03*
X101500Y38500D02*
D03*
X111500Y38000D02*
D03*
X106501Y31495D02*
D03*
X124500Y30000D02*
D03*
X107030Y41474D02*
D03*
X51588Y25500D02*
D03*
X61595Y30115D02*
D03*
X61468Y37699D02*
D03*
X32000Y68500D02*
D03*
X117000Y41000D02*
D03*
X97500Y42500D02*
D03*
X103770Y44263D02*
D03*
X101420Y47854D02*
D03*
X113500Y69500D02*
D03*
X105500Y2000D02*
D03*
X67000Y55000D02*
D03*
X176000Y48000D02*
D03*
X74000Y21432D02*
D03*
X52500Y20468D02*
D03*
X66000Y19000D02*
D03*
X26000Y65500D02*
D03*
X194500Y48000D02*
D03*
X196500Y45000D02*
D03*
X66500Y41000D02*
D03*
X84000Y55500D02*
D03*
X81485Y49969D02*
D03*
X31000Y19500D02*
D03*
X147500Y21000D02*
D03*
D59*
X86500Y70000D02*
D03*
Y62520D02*
D03*
X193500Y67480D02*
D03*
Y60000D02*
D03*
X135000Y68740D02*
D03*
Y61260D02*
D03*
X131000Y27500D02*
D03*
Y20020D02*
D03*
X22500Y59740D02*
D03*
Y52260D02*
D03*
X22000Y35000D02*
D03*
Y27520D02*
D03*
D60*
X184500Y67437D02*
D03*
Y59563D02*
D03*
X151500Y69937D02*
D03*
Y62063D02*
D03*
X127000Y68937D02*
D03*
Y61063D02*
D03*
X119500Y61126D02*
D03*
X119500Y69000D02*
D03*
X41500Y49937D02*
D03*
Y42063D02*
D03*
X159000Y64000D02*
D03*
Y56126D02*
D03*
X143500Y62063D02*
D03*
Y69937D02*
D03*
X81000Y37937D02*
D03*
X81000Y30063D02*
D03*
X88000Y26937D02*
D03*
X88000Y19063D02*
D03*
X94500Y69937D02*
D03*
X94500Y62063D02*
D03*
D61*
X167843Y62250D02*
D03*
X178158Y66010D02*
D03*
Y69750D02*
D03*
Y62270D02*
D03*
X167843Y69750D02*
D03*
D62*
X34259Y34000D02*
D03*
X41740D02*
D03*
D63*
X33063Y56000D02*
D03*
X40937D02*
D03*
M02*
