G04*
G04 #@! TF.GenerationSoftware,Altium Limited,Altium Designer,22.10.1 (41)*
G04*
G04 Layer_Color=8388736*
%FSLAX25Y25*%
%MOIN*%
G70*
G04*
G04 #@! TF.SameCoordinates,E3A0FBDB-8A8B-4B96-B359-3B6F4FC795B9*
G04*
G04*
G04 #@! TF.FilePolarity,Negative*
G04*
G01*
G75*
%ADD31R,0.05324X0.05324*%
%ADD32R,0.08280X0.08280*%
%ADD33R,0.07099X0.09068*%
%ADD34R,0.06115X0.02375*%
%ADD35R,0.08674X0.08674*%
%ADD36R,0.09265X0.09265*%
G04:AMPARAMS|DCode=37|XSize=72.93mil|YSize=17.81mil|CornerRadius=0mil|HoleSize=0mil|Usage=FLASHONLY|Rotation=45.000|XOffset=0mil|YOffset=0mil|HoleType=Round|Shape=Rectangle|*
%AMROTATEDRECTD37*
4,1,4,-0.01949,-0.03208,-0.03208,-0.01949,0.01949,0.03208,0.03208,0.01949,-0.01949,-0.03208,0.0*
%
%ADD37ROTATEDRECTD37*%

G04:AMPARAMS|DCode=38|XSize=72.93mil|YSize=17.81mil|CornerRadius=0mil|HoleSize=0mil|Usage=FLASHONLY|Rotation=135.000|XOffset=0mil|YOffset=0mil|HoleType=Round|Shape=Rectangle|*
%AMROTATEDRECTD38*
4,1,4,0.03208,-0.01949,0.01949,-0.03208,-0.03208,0.01949,-0.01949,0.03208,0.03208,-0.01949,0.0*
%
%ADD38ROTATEDRECTD38*%

%ADD39R,0.05918X0.08280*%
%ADD40R,0.05524X0.24800*%
%ADD41R,0.04800X0.08000*%
%ADD42O,0.04800X0.08000*%
%ADD43O,0.06706X0.08674*%
%ADD44O,0.10642X0.05524*%
%ADD45R,0.10642X0.05524*%
%ADD46C,0.02375*%
D31*
X22000Y22500D02*
D03*
Y29500D02*
D03*
X22500Y58500D02*
D03*
Y51500D02*
D03*
D32*
X199020Y59961D02*
D03*
Y30039D02*
D03*
D33*
X189472Y57205D02*
D03*
Y32795D02*
D03*
D34*
X188980Y50118D02*
D03*
Y47559D02*
D03*
Y45000D02*
D03*
Y42441D02*
D03*
Y39882D02*
D03*
D35*
X177500Y60000D02*
D03*
D36*
X144035D02*
D03*
D37*
X87046Y39858D02*
D03*
X88438Y38466D02*
D03*
X89830Y37074D02*
D03*
X91222Y35682D02*
D03*
X92614Y34290D02*
D03*
X94006Y32898D02*
D03*
X95398Y31506D02*
D03*
X96790Y30114D02*
D03*
X98182Y28722D02*
D03*
X99574Y27330D02*
D03*
X100966Y25938D02*
D03*
X102358Y24546D02*
D03*
X125954Y48142D02*
D03*
X124562Y49534D02*
D03*
X123170Y50926D02*
D03*
X121778Y52318D02*
D03*
X120386Y53710D02*
D03*
X118994Y55102D02*
D03*
X117602Y56494D02*
D03*
X116210Y57886D02*
D03*
X114818Y59278D02*
D03*
X113426Y60670D02*
D03*
X112034Y62062D02*
D03*
X110642Y63454D02*
D03*
D38*
Y24546D02*
D03*
X112034Y25938D02*
D03*
X113426Y27330D02*
D03*
X114818Y28722D02*
D03*
X116210Y30114D02*
D03*
X117602Y31506D02*
D03*
X118994Y32898D02*
D03*
X120386Y34290D02*
D03*
X121778Y35682D02*
D03*
X123170Y37074D02*
D03*
X124562Y38466D02*
D03*
X125954Y39858D02*
D03*
X102358Y63454D02*
D03*
X100966Y62062D02*
D03*
X99574Y60670D02*
D03*
X98182Y59278D02*
D03*
X96790Y57886D02*
D03*
X95398Y56494D02*
D03*
X94006Y55102D02*
D03*
X92614Y53710D02*
D03*
X91222Y52318D02*
D03*
X89830Y50926D02*
D03*
X88438Y49534D02*
D03*
X87046Y48142D02*
D03*
D39*
X52846Y53098D02*
D03*
X74500D02*
D03*
X52846Y40500D02*
D03*
X74500D02*
D03*
D40*
X38000Y61000D02*
D03*
Y29504D02*
D03*
D41*
X10500Y80000D02*
D03*
X11500Y10000D02*
D03*
D42*
X20343Y80000D02*
D03*
X30185D02*
D03*
X40500D02*
D03*
X50500D02*
D03*
X60500D02*
D03*
X70500D02*
D03*
X90500D02*
D03*
X80500D02*
D03*
X100500D02*
D03*
X110500D02*
D03*
X120500D02*
D03*
X130500D02*
D03*
X140500D02*
D03*
X150500D02*
D03*
X160500D02*
D03*
X170500D02*
D03*
X180500D02*
D03*
X190500D02*
D03*
X200500D02*
D03*
X201500Y10000D02*
D03*
X191500D02*
D03*
X181500D02*
D03*
X171500D02*
D03*
X161500D02*
D03*
X151500D02*
D03*
X141500D02*
D03*
X131500D02*
D03*
X121500D02*
D03*
X111500D02*
D03*
X101500D02*
D03*
X81500D02*
D03*
X91500D02*
D03*
X71500D02*
D03*
X61500D02*
D03*
X51500D02*
D03*
X41500D02*
D03*
X31185D02*
D03*
X21343D02*
D03*
D43*
X165500Y22500D02*
D03*
X155500D02*
D03*
Y32500D02*
D03*
X165500D02*
D03*
X175500Y22500D02*
D03*
Y32500D02*
D03*
D44*
X12000Y57500D02*
D03*
Y47500D02*
D03*
Y37500D02*
D03*
D45*
Y27500D02*
D03*
D46*
X166000Y84000D02*
D03*
X2833Y44166D02*
D03*
X3500Y53000D02*
D03*
X59000Y22000D02*
D03*
X105457Y35657D02*
D03*
X102113Y53887D02*
D03*
X100015Y50514D02*
D03*
X102646Y69714D02*
D03*
X23000Y69000D02*
D03*
X22500Y42500D02*
D03*
X26500Y41500D02*
D03*
X140000Y46000D02*
D03*
X137783Y43935D02*
D03*
X144619Y41881D02*
D03*
X150619Y47881D02*
D03*
X126392Y56621D02*
D03*
X134123Y55946D02*
D03*
X130263Y54937D02*
D03*
X134978Y48000D02*
D03*
X80500Y59500D02*
D03*
X59000Y53000D02*
D03*
X110597Y70040D02*
D03*
X101500Y38500D02*
D03*
X111500Y38000D02*
D03*
X106501Y31495D02*
D03*
X124500Y30000D02*
D03*
X107030Y41474D02*
D03*
X51588Y25500D02*
D03*
X61595Y30115D02*
D03*
X61468Y37699D02*
D03*
X32000Y68500D02*
D03*
X117000Y41000D02*
D03*
X97500Y42500D02*
D03*
X103770Y44263D02*
D03*
X101420Y47854D02*
D03*
X113500Y69500D02*
D03*
X105500Y2000D02*
D03*
X67000Y55000D02*
D03*
X176000Y48000D02*
D03*
X74000Y21432D02*
D03*
X52500Y20468D02*
D03*
X66000Y19000D02*
D03*
X26000Y65500D02*
D03*
X194500Y48000D02*
D03*
X196500Y45000D02*
D03*
X66500Y41000D02*
D03*
X84000Y55500D02*
D03*
X81485Y49969D02*
D03*
X31000Y19500D02*
D03*
X147500Y21000D02*
D03*
M02*
