G04*
G04 #@! TF.GenerationSoftware,Altium Limited,Altium Designer,22.10.1 (41)*
G04*
G04 Layer_Color=32896*
%FSLAX25Y25*%
%MOIN*%
G70*
G04*
G04 #@! TF.SameCoordinates,E3A0FBDB-8A8B-4B96-B359-3B6F4FC795B9*
G04*
G04*
G04 #@! TF.FilePolarity,Positive*
G04*
G01*
G75*
%ADD12C,0.00500*%
%ADD13C,0.04000*%
%ADD14C,0.00787*%
%ADD18C,0.00600*%
D12*
X90300Y67460D02*
Y73460D01*
X82700D02*
X90300D01*
X82700Y67660D02*
Y73460D01*
Y59060D02*
X90300D01*
X82700D02*
Y64960D01*
X90300Y59060D02*
Y64960D01*
X189700Y65040D02*
Y70940D01*
X197300Y65040D02*
Y70940D01*
X189700D02*
X197300D01*
Y56540D02*
Y62340D01*
X189700Y56540D02*
X197300D01*
X189700D02*
Y62540D01*
X181100Y56163D02*
X187900D01*
X181100D02*
Y62363D01*
Y64663D02*
Y70763D01*
Y70837D02*
X187900D01*
Y64563D02*
Y70763D01*
Y56163D02*
Y62463D01*
X177374Y72650D02*
X178045Y71980D01*
X178715Y72650D02*
X181416D01*
X178045Y71980D02*
X178715Y72650D01*
X164585Y59350D02*
X181416D01*
Y72650D01*
X164585D02*
X177374D01*
X164585Y59350D02*
Y72650D01*
X148100Y58663D02*
X154900D01*
X148100D02*
Y64863D01*
Y67163D02*
Y73263D01*
Y73337D02*
X154900D01*
Y67063D02*
Y73263D01*
Y58663D02*
Y64963D01*
X138800Y66200D02*
Y72200D01*
X131200D02*
X138800D01*
X131200Y66400D02*
Y72200D01*
Y57800D02*
X138800D01*
X131200D02*
Y63700D01*
X138800Y57800D02*
Y63700D01*
X123600Y66037D02*
Y72337D01*
Y57737D02*
Y63937D01*
Y57663D02*
X130400D01*
Y57737D02*
Y63837D01*
Y66137D02*
Y72337D01*
X123600D02*
X130400D01*
X122900Y57726D02*
Y64026D01*
Y66126D02*
Y72326D01*
X116100Y72400D02*
X122900D01*
X116100Y66226D02*
X116100Y72326D01*
X116100Y57726D02*
X116100Y63926D01*
X116100Y57726D02*
X122900D01*
X30800Y30200D02*
X36700D01*
X30800Y37800D02*
X36700D01*
X30800Y30200D02*
Y37800D01*
X39400D02*
X45200D01*
Y30200D02*
Y37800D01*
X39200Y30200D02*
X45200D01*
X38100Y47037D02*
Y53337D01*
Y38737D02*
Y44937D01*
Y38663D02*
X44900D01*
Y38737D02*
Y44837D01*
Y47137D02*
Y53337D01*
X38100D02*
X44900D01*
X155600Y52726D02*
X162400D01*
X155600D02*
Y58926D01*
Y61226D02*
Y67326D01*
Y67400D02*
X162400D01*
Y61126D02*
Y67326D01*
Y52726D02*
Y59026D01*
X146900Y58663D02*
Y64963D01*
Y67063D02*
Y73263D01*
X140100Y73337D02*
X146900D01*
X140100Y67163D02*
Y73263D01*
Y58663D02*
Y64863D01*
Y58663D02*
X146900D01*
X77600Y26663D02*
X84400D01*
X77600D02*
X77600Y32863D01*
X77600Y35163D02*
X77600Y41263D01*
Y41337D02*
X84400Y41337D01*
Y35063D02*
Y41263D01*
Y26663D02*
Y32963D01*
X84600Y15663D02*
X91400D01*
X84600Y21863D02*
X84600Y15663D01*
Y24163D02*
X84600Y30263D01*
Y30337D02*
X91400Y30337D01*
X91400Y24063D02*
Y30263D01*
X91400Y15663D02*
Y21964D01*
X91100Y58663D02*
X97900D01*
X91100D02*
X91100Y64863D01*
X91100Y67163D02*
X91100Y73263D01*
Y73337D02*
X97900Y73337D01*
Y67063D02*
Y73263D01*
Y58663D02*
Y64963D01*
X134800Y24960D02*
Y30960D01*
X127200D02*
X134800D01*
X127200Y25160D02*
Y30960D01*
Y16560D02*
X134800D01*
X127200D02*
Y22460D01*
X134800Y16560D02*
Y22460D01*
X26300Y57200D02*
Y63200D01*
X18700D02*
X26300D01*
X18700Y57400D02*
Y63200D01*
Y48800D02*
X26300D01*
X18700D02*
Y54700D01*
X26300Y48800D02*
Y54700D01*
X25800Y32460D02*
Y38460D01*
X18200D02*
X25800D01*
X18200Y32660D02*
Y38460D01*
Y24060D02*
X25800D01*
X18200D02*
Y29960D01*
X25800Y24060D02*
Y29960D01*
X44337Y52600D02*
Y59400D01*
X38137Y52600D02*
X44337D01*
X29737D02*
X35837D01*
X29663D02*
Y59400D01*
X29737D02*
X35937D01*
X38037D02*
X44337D01*
D13*
X10243Y71700D02*
D03*
X11242Y1700D02*
D03*
D14*
X4201Y74300D02*
X205400D01*
Y85800D01*
X4201Y74300D02*
Y85800D01*
X205400D01*
X5201Y15800D02*
X206400D01*
X5201Y4300D02*
Y15800D01*
X206400Y4300D02*
Y15800D01*
X5201Y4300D02*
X206400D01*
D18*
X80787Y69910D02*
Y71090D01*
X80197D01*
X80000Y70894D01*
Y70500D01*
X80197Y70303D01*
X80787D01*
X80394D02*
X80000Y69910D01*
X79606D02*
X79213D01*
X79410D01*
Y71090D01*
X79606Y70894D01*
X204697Y72090D02*
X205090D01*
X204894D01*
Y71106D01*
X205090Y70910D01*
X205287D01*
X205484Y71106D01*
X203713Y70910D02*
Y72090D01*
X204303Y71500D01*
X203516D01*
X194984Y53410D02*
Y54590D01*
X194394D01*
X194197Y54394D01*
Y54000D01*
X194394Y53803D01*
X194984D01*
X194590D02*
X194197Y53410D01*
X193803Y54590D02*
X193016D01*
Y54394D01*
X193803Y53606D01*
Y53410D01*
X184697Y53394D02*
X184894Y53590D01*
X185287D01*
X185484Y53394D01*
Y52606D01*
X185287Y52410D01*
X184894D01*
X184697Y52606D01*
X184303Y53394D02*
X184106Y53590D01*
X183713D01*
X183516Y53394D01*
Y53197D01*
X183713Y53000D01*
X183516Y52803D01*
Y52606D01*
X183713Y52410D01*
X184106D01*
X184303Y52606D01*
Y52803D01*
X184106Y53000D01*
X184303Y53197D01*
Y53394D01*
X184106Y53000D02*
X183713D01*
X174468Y55410D02*
Y56590D01*
X173878D01*
X173681Y56394D01*
Y56000D01*
X173878Y55803D01*
X174468D01*
X174074D02*
X173681Y55410D01*
X172500Y56590D02*
X173287D01*
Y55410D01*
X172500D01*
X173287Y56000D02*
X172894D01*
X171319Y56394D02*
X171516Y56590D01*
X171910D01*
X172106Y56394D01*
Y55606D01*
X171910Y55410D01*
X171516D01*
X171319Y55606D01*
Y56000D01*
X171713D01*
X170926Y55410D02*
X170532D01*
X170729D01*
Y56590D01*
X170926Y56394D01*
X155197Y77394D02*
X155394Y77590D01*
X155787D01*
X155984Y77394D01*
Y76606D01*
X155787Y76410D01*
X155394D01*
X155197Y76606D01*
X154803D02*
X154606Y76410D01*
X154213D01*
X154016Y76606D01*
Y77394D01*
X154213Y77590D01*
X154606D01*
X154803Y77394D01*
Y77197D01*
X154606Y77000D01*
X154016D01*
X136984Y76410D02*
Y77590D01*
X136394D01*
X136197Y77394D01*
Y77000D01*
X136394Y76803D01*
X136984D01*
X136590D02*
X136197Y76410D01*
X135016Y77590D02*
X135410Y77394D01*
X135803Y77000D01*
Y76606D01*
X135606Y76410D01*
X135213D01*
X135016Y76606D01*
Y76803D01*
X135213Y77000D01*
X135803D01*
X125697Y77394D02*
X125894Y77590D01*
X126287D01*
X126484Y77394D01*
Y76606D01*
X126287Y76410D01*
X125894D01*
X125697Y76606D01*
X125303Y77590D02*
X124516D01*
Y77394D01*
X125303Y76606D01*
Y76410D01*
X113197Y71894D02*
X113394Y72090D01*
X113787D01*
X113984Y71894D01*
Y71106D01*
X113787Y70910D01*
X113394D01*
X113197Y71106D01*
X112016Y70910D02*
X112803D01*
X112016Y71697D01*
Y71894D01*
X112213Y72090D01*
X112606D01*
X112803Y71894D01*
X48484Y40410D02*
Y41590D01*
X47894D01*
X47697Y41394D01*
Y41000D01*
X47894Y40803D01*
X48484D01*
X48090D02*
X47697Y40410D01*
X46516D02*
X47303D01*
X46516Y41197D01*
Y41394D01*
X46713Y41590D01*
X47106D01*
X47303Y41394D01*
X47197Y56894D02*
X47394Y57090D01*
X47787D01*
X47984Y56894D01*
Y56106D01*
X47787Y55910D01*
X47394D01*
X47197Y56106D01*
X46016Y57090D02*
X46410Y56894D01*
X46803Y56500D01*
Y56106D01*
X46606Y55910D01*
X46213D01*
X46016Y56106D01*
Y56303D01*
X46213Y56500D01*
X46803D01*
X161313Y71284D02*
X161510Y71481D01*
X161903D01*
X162100Y71284D01*
Y70497D01*
X161903Y70300D01*
X161510D01*
X161313Y70497D01*
X160919Y70300D02*
X160526D01*
X160722D01*
Y71481D01*
X160919Y71284D01*
X159935Y70300D02*
X159542D01*
X159739D01*
Y71481D01*
X159935Y71284D01*
X134500Y33800D02*
Y34981D01*
X133910D01*
X133713Y34784D01*
Y34390D01*
X133910Y34194D01*
X134500D01*
X134106D02*
X133713Y33800D01*
X132532Y34981D02*
X133319D01*
Y34390D01*
X132926Y34587D01*
X132729D01*
X132532Y34390D01*
Y33997D01*
X132729Y33800D01*
X133123D01*
X133319Y33997D01*
X25500Y41300D02*
Y42481D01*
X24910D01*
X24713Y42284D01*
Y41890D01*
X24910Y41694D01*
X25500D01*
X25106D02*
X24713Y41300D01*
X23729D02*
Y42481D01*
X24319Y41890D01*
X23532D01*
X25900Y66000D02*
Y67181D01*
X25310D01*
X25113Y66984D01*
Y66590D01*
X25310Y66394D01*
X25900D01*
X25506D02*
X25113Y66000D01*
X24719Y66984D02*
X24522Y67181D01*
X24129D01*
X23932Y66984D01*
Y66787D01*
X24129Y66590D01*
X24326D01*
X24129D01*
X23932Y66394D01*
Y66197D01*
X24129Y66000D01*
X24522D01*
X24719Y66197D01*
X205413Y19981D02*
X205806D01*
X205610D01*
Y18997D01*
X205806Y18800D01*
X206003D01*
X206200Y18997D01*
X204232Y19981D02*
X205019D01*
Y19390D01*
X204626Y19587D01*
X204429D01*
X204232Y19390D01*
Y18997D01*
X204429Y18800D01*
X204822D01*
X205019Y18997D01*
X145813Y77184D02*
X146010Y77381D01*
X146403D01*
X146600Y77184D01*
Y76397D01*
X146403Y76200D01*
X146010D01*
X145813Y76397D01*
X145419Y76200D02*
X145026D01*
X145222D01*
Y77381D01*
X145419Y77184D01*
X144435D02*
X144239Y77381D01*
X143845D01*
X143648Y77184D01*
Y76397D01*
X143845Y76200D01*
X144239D01*
X144435Y76397D01*
Y77184D01*
X43213Y63284D02*
X43410Y63481D01*
X43803D01*
X44000Y63284D01*
Y62497D01*
X43803Y62300D01*
X43410D01*
X43213Y62497D01*
X42032Y63481D02*
X42819D01*
Y62890D01*
X42426Y63087D01*
X42229D01*
X42032Y62890D01*
Y62497D01*
X42229Y62300D01*
X42623D01*
X42819Y62497D01*
X90313Y34184D02*
X90510Y34381D01*
X90903D01*
X91100Y34184D01*
Y33397D01*
X90903Y33200D01*
X90510D01*
X90313Y33397D01*
X89329Y33200D02*
Y34381D01*
X89919Y33790D01*
X89132D01*
X96813Y77184D02*
X97010Y77381D01*
X97403D01*
X97600Y77184D01*
Y76397D01*
X97403Y76200D01*
X97010D01*
X96813Y76397D01*
X96419Y77184D02*
X96223Y77381D01*
X95829D01*
X95632Y77184D01*
Y76987D01*
X95829Y76790D01*
X96026D01*
X95829D01*
X95632Y76594D01*
Y76397D01*
X95829Y76200D01*
X96223D01*
X96419Y76397D01*
X83313Y45184D02*
X83510Y45381D01*
X83903D01*
X84100Y45184D01*
Y44397D01*
X83903Y44200D01*
X83510D01*
X83313Y44397D01*
X82919Y44200D02*
X82526D01*
X82723D01*
Y45381D01*
X82919Y45184D01*
M02*
